Input #0, mov,mp4,m4a,3gp,3g2,mj2, from 'C:\Users\sulta\OneDrive - Invesense Asset Management Limited\Documents\remotion\benchmarks\.cache\source\the-plumbing-of-american-finance-is-being-rebuil-3853db33.mp4':
  Metadata:
    major_brand     : isom
    minor_version   : 512
    compatible_brands: isomiso2avc1mp41
  Duration: 00:01:27.65, start: 0.000000, bitrate: 460 kb/s
  Stream #0:0[0x1](und): Video: h264 (High) (avc1 / 0x31637661), yuv420p(tv, bt709, progressive), 720x1280, 385 kb/s, 30 fps, 30 tbr, 15360 tbn (default)
    Metadata:
      handler_name    : VideoHandler
      encoder         : AVC Coding
  Stream #0:1[0x2](und): Audio: aac (HE-AAC) (mp4a / 0x6134706D), 44100 Hz, stereo, fltp, 68 kb/s (default)
    Metadata:
      handler_name    : SoundHandler
Stream mapping:
  Stream #0:0 -> #0:0 (h264 (native) -> wrapped_avframe (native))
Press [q] to stop, [?] for help
Output #0, null, to 'NUL':
  Metadata:
    major_brand     : isom
    minor_version   : 512
    compatible_brands: isomiso2avc1mp41
    encoder         : Lavf62.12.101
  Stream #0:0(und): Video: wrapped_avframe, yuv420p(tv, bt709, progressive), 720x1280, q=2-31, 200 kb/s, 30 fps, 30 tbn (default)
    Metadata:
      encoder         : Lavc62.28.101 wrapped_avframe
      handler_name    : VideoHandler
[Parsed_scdet_0 @ 00000208b19f2000] lavfi.scd.score: 22.015, lavfi.scd.time: 6.3
[Parsed_scdet_0 @ 00000208b19f2000] lavfi.scd.score: 69.179, lavfi.scd.time: 30.133333
[Parsed_scdet_0 @ 00000208b19f2000] lavfi.scd.score: 79.651, lavfi.scd.time: 62.9
[Parsed_scdet_0 @ 00000208b19f2000] lavfi.scd.score: 77.372, lavfi.scd.time: 65.766667
[Parsed_scdet_0 @ 00000208b19f2000] lavfi.scd.score: 13.237, lavfi.scd.time: 75.433333
[Parsed_scdet_0 @ 00000208b19f2000] lavfi.scd.score: 72.082, lavfi.scd.time: 78.433333
[Parsed_scdet_0 @ 00000208b19f2000] lavfi.scd.score: 78.051, lavfi.scd.time: 87.466667
[out#0/null @ 00000208b19f2300] video:1087KiB audio:0KiB subtitle:0KiB other streams:0KiB global headers:0KiB muxing overhead: unknown
frame= 2626 fps=0.0 q=-0.0 Lsize=N/A time=00:01:27.53 bitrate=N/A speed= 188x elapsed=0:00:00.46    
